<?xml version="1.0" encoding="UTF-8" standalone="no"?>
<svg
   xmlns:dc="http://purl.org/dc/elements/1.1/"
   xmlns:cc="http://creativecommons.org/ns#"
   xmlns:rdf="http://www.w3.org/1999/02/22-rdf-syntax-ns#"
   xmlns:svg="http://www.w3.org/2000/svg"
   xmlns="http://www.w3.org/2000/svg"
   xmlns:sodipodi="http://sodipodi.sourceforge.net/DTD/sodipodi-0.dtd"
   xmlns:inkscape="http://www.inkscape.org/namespaces/inkscape"
   viewBox="0 -256 1792 1792"
   id="svg2989"
   version="1.1"
   inkscape:version="0.92.2 (5c3e80d, 2017-08-06)"
   width="100%"
   height="100%"
   sodipodi:docname="arrow-right.svg">
  <metadata
     id="metadata2999">
    <rdf:RDF>
      <cc:Work
         rdf:about="">
        <dc:format>image/svg+xml</dc:format>
        <dc:type
           rdf:resource="http://purl.org/dc/dcmitype/StillImage" />
        <dc:title></dc:title>
      </cc:Work>
    </rdf:RDF>
  </metadata>
  <defs
     id="defs2997" />
  <sodipodi:namedview
     pagecolor="#ffffff"
     bordercolor="#666666"
     borderopacity="1"
     objecttolerance="10"
     gridtolerance="10"
     guidetolerance="10"
     inkscape:pageopacity="0"
     inkscape:pageshadow="2"
     inkscape:window-width="1920"
     inkscape:window-height="1054"
     id="namedview2995"
     showgrid="false"
     inkscape:zoom="0.37249375"
     inkscape:cx="954.59593"
     inkscape:cy="866.92252"
     inkscape:window-x="0"
     inkscape:window-y="0"
     inkscape:window-maximized="1"
     inkscape:current-layer="svg2989"
     units="px"
     width="1e-05"
     scale-x="1792" />
  <path
     style="fill:#f9f9f9;fill-opacity:1;stroke-width:2.6846087"
     d="m 961.05007,-120.89842 c 316.73683,22.397699 590.83053,245.6321 679.39543,553.3306 11.6814,40.5842 21.315,92.3904 25.496,137.10835 4.1446,44.32869 1.8359,148.64585 -4.1402,187.07095 -25.4135,163.4043 -95.2846,303.90062 -209.4446,421.14932 -103.8865,106.6973 -228.8772,178.1923 -370.4993,211.9265 -108.69943,25.892 -235.42973,27.0128 -346.31443,3.0626 -164.73,-35.5804 -321.0444,-132.7639 -429.4624,-267.0047 -89.4984,-110.815 -144.732,-240.03652 -164.0913,-383.89902 -6.3688,-47.3279 -6.4342,-147.48411 -0.1275,-195.52966 15.6348,-119.11074 54.8068,-224.40524 121.0135,-325.28444 92.6187,-141.123301 236.034,-251.500801 395.7755,-304.602901 97.8151,-32.516199 197.1103,-44.772999 302.3993,-37.327599 z m -86.9681,254.6385 c -12.4661,6.4904 -113.6949,108.4896 -119.9369,120.8496 -5.7691,11.4236 -6.4407,37.2247 -1.3627,52.3499 2.8567,8.5086 23.9859,31.2165 101.7554,109.3581 l 98.1502,98.6196 -259.1221,0.7109 -259.1222,0.7108 -13.1405,8.1248 c -8.1377,5.0316 -16.2338,13.1255 -21.2654,21.25968 l -8.1248,13.13485 -0.7842,81.83933 -0.7843,81.83934 6.8909,14.0846 c 3.79,7.7465 11.0899,17.2872 16.2219,21.2016 20.5402,15.6667 5.8606,14.8959 283.6944,14.8959 h 255.7457 l -96.98,97.3171 c -53.3391,53.5244 -98.9862,101.3083 -101.4382,106.1864 -6.4381,12.8086 -8.1712,33.16212 -4.0971,48.11572 3.1018,11.3848 9.6583,19.0567 58.7567,68.7518 30.8887,31.2641 59.9985,58.3766 65.9962,61.4679 14.173,7.3052 41.3905,7.7049 56.3844,0.828 7.4788,-3.4301 82.17883,-76.3121 246.09463,-240.10552 229.1006,-228.92943 235.469,-235.56787 239.6013,-249.76178 5.3165,-18.26156 5.3163,-25.06243 0,-43.32153 -4.1293,-14.17779 -10.6509,-20.99665 -235.5744,-246.31279 -127.2302,-127.4523 -234.87783,-234.3095 -239.21703,-237.4604 -17.9029,-13.0005 -48.3577,-15.0877 -68.3402,-4.6839 z"
     id="path3749"
     inkscape:connector-curvature="0" />
</svg>
