<?xml version="1.0" encoding="UTF-8" standalone="no"?>
<svg
   xmlns:dc="http://purl.org/dc/elements/1.1/"
   xmlns:cc="http://creativecommons.org/ns#"
   xmlns:rdf="http://www.w3.org/1999/02/22-rdf-syntax-ns#"
   xmlns:svg="http://www.w3.org/2000/svg"
   xmlns="http://www.w3.org/2000/svg"
   xmlns:sodipodi="http://sodipodi.sourceforge.net/DTD/sodipodi-0.dtd"
   xmlns:inkscape="http://www.inkscape.org/namespaces/inkscape"
   viewBox="0 -256 1792 1792"
   id="svg2989"
   version="1.1"
   inkscape:version="0.92.2 (5c3e80d, 2017-08-06)"
   width="100%"
   height="100%"
   sodipodi:docname="arrow-left.svg">
  <metadata
     id="metadata2999">
    <rdf:RDF>
      <cc:Work
         rdf:about="">
        <dc:format>image/svg+xml</dc:format>
        <dc:type
           rdf:resource="http://purl.org/dc/dcmitype/StillImage" />
        <dc:title></dc:title>
      </cc:Work>
    </rdf:RDF>
  </metadata>
  <defs
     id="defs2997" />
  <sodipodi:namedview
     pagecolor="#ffffff"
     bordercolor="#666666"
     borderopacity="1"
     objecttolerance="10"
     gridtolerance="10"
     guidetolerance="10"
     inkscape:pageopacity="0"
     inkscape:pageshadow="2"
     inkscape:window-width="1920"
     inkscape:window-height="1054"
     id="namedview2995"
     showgrid="false"
     inkscape:zoom="0.37249375"
     inkscape:cx="954.59593"
     inkscape:cy="866.92252"
     inkscape:window-x="0"
     inkscape:window-y="0"
     inkscape:window-maximized="1"
     inkscape:current-layer="svg2989"
     units="px"
     width="1e-05"
     scale-x="1792" />
  <g
     transform="matrix(1,0,0,-1,129.08475,1277.8305)"
     id="g2991">
    <path
       d="m 1280,576 v 128 q 0,26 -19,45 -19,19 -45,19 H 714 l 189,189 q 19,19 19,45 0,26 -19,45 l -91,91 q -18,18 -45,18 -27,0 -45,-18 L 360,776 269,685 q -18,-18 -18,-45 0,-27 18,-45 l 91,-91 362,-362 q 18,-18 45,-18 27,0 45,18 l 91,91 q 18,18 18,45 0,27 -18,45 L 714,512 h 502 q 26,0 45,19 19,19 19,45 z m 256,64 Q 1536,431 1433,254.5 1330,78 1153.5,-25 977,-128 768,-128 559,-128 382.5,-25 206,78 103,254.5 0,431 0,640 0,849 103,1025.5 206,1202 382.5,1305 559,1408 768,1408 977,1408 1153.5,1305 1330,1202 1433,1025.5 1536,849 1536,640 z"
       id="path2993"
       inkscape:connector-curvature="0"
       style="fill:currentColor" />
  </g>
  <path
     style="fill:#47a3da;stroke-width:2.6846087;fill-opacity:1"
     d="M 838.794,1658.4667 C 522.05709,1636.069 247.96341,1412.8346 159.39851,1105.1361 147.71715,1064.5519 138.08352,1012.7457 133.90252,968.02775 129.75792,923.69906 132.06662,819.3819 138.04269,780.95677 163.45618,617.55245 233.32732,477.05619 347.48732,359.80743 451.37378,253.11017 576.3645,181.61519 717.9866,147.88099 c 108.69949,-25.89208 235.42978,-27.0128 346.3145,-3.0626 164.73,35.58032 321.0444,132.76387 429.4624,267.00468 89.4984,110.81496 144.732,240.03648 164.0913,383.89905 6.3688,47.32788 6.4342,147.48409 0.1275,195.52964 -15.6348,119.11074 -54.8068,224.40524 -121.0135,325.28444 -92.6187,141.1233 -236.034,251.5008 -395.7755,304.6029 -97.8151,32.5162 -197.11029,44.773 -302.3993,37.3276 z m 86.96809,-254.6385 c 12.46606,-6.4904 113.69491,-108.4896 119.93691,-120.8496 5.7691,-11.4236 6.4407,-37.2247 1.3627,-52.3499 -2.8567,-8.5086 -23.9859,-31.2165 -101.75545,-109.3581 l -98.15018,-98.6196 259.12213,-0.7109 259.1222,-0.7108 13.1405,-8.1248 c 8.1377,-5.0316 16.2338,-13.1255 21.2654,-21.25968 l 8.1248,-13.13485 0.7842,-81.83933 0.7843,-81.83931 -6.8909,-14.08461 c -3.79,-7.74652 -11.0899,-17.28724 -16.2219,-21.20162 -20.5402,-15.66676 -5.8606,-14.89598 -283.6944,-14.89598 H 846.94665 l 96.98006,-97.31707 c 53.33905,-53.52438 98.98619,-101.30825 101.43819,-106.18637 6.4381,-12.80862 8.1712,-33.16208 4.0971,-48.11576 -3.1018,-11.38478 -9.6583,-19.05667 -58.75673,-68.75173 -30.88871,-31.26409 -59.99854,-58.37659 -65.99617,-61.46792 -14.17307,-7.30517 -41.39054,-7.70487 -56.3844,-0.82803 -7.47887,3.43013 -82.17886,76.31216 -246.09463,240.10548 -229.10062,228.92951 -235.46901,235.56795 -239.60132,249.76186 -5.31656,18.26156 -5.31628,25.06243 0.002,43.32153 4.12932,14.17779 10.6509,20.99665 235.5744,246.31279 127.23014,127.4523 234.87782,234.3095 239.21704,237.4604 17.9029,13.0005 48.35769,15.0877 68.34015,4.6839 z"
     id="path3749"
     inkscape:connector-curvature="0"
     transform="translate(0,-256)" />
</svg>
